<svg xmlns="http://www.w3.org/2000/svg" width="20" height="20" viewBox="0 0 20 20">
  <path id="path" d="M263.7,1013.2a9.506,9.506,0,0,1,7.1-2.9,9.9,9.9,0,0,1,7.1,2.9,9.356,9.356,0,0,1,2.9,7.1,9.9,9.9,0,0,1-2.9,7.1,9.356,9.356,0,0,1-7.1,2.9,9.9,9.9,0,0,1-7.1-2.9,10.141,10.141,0,0,1,0-14.2Zm7,14.2a7.068,7.068,0,0,0,6-3.2c0-.9-.7-1.6-2.1-2.2a8.9,8.9,0,0,0-7.8,0c-1.4.6-2.1,1.3-2.1,2.2A6.842,6.842,0,0,0,270.7,1027.4Zm2.1-13.3a2.9,2.9,0,1,0,.9,2.1A2.878,2.878,0,0,0,272.8,1014.1Z" transform="translate(-260.8 -1010.3)" fill="#fff" opacity="0.8"/>
</svg>
